<svg id="Layer_1" data-name="Layer 1" xmlns="http://www.w3.org/2000/svg" viewBox="0 0 231 76"><defs><style>.cls-1{fill:#808184;}.cls-1,.cls-2,.cls-3,.cls-4,.cls-5,.cls-6,.cls-7,.cls-8{stroke:#fff;stroke-linejoin:round;}.cls-10,.cls-2{fill:#f6921e;}.cls-3{fill:#80d3ce;}.cls-4{fill:#d0d2d3;}.cls-5{fill:#bfe9e7;}.cls-6{fill:none;}.cls-11,.cls-7{fill:#00a79d;}.cls-8{fill:#40bdb6;}.cls-9{fill:#fff;}</style></defs><title>ian-nordeck-logo-01</title><polygon class="cls-1" points="29.25 74.21 2.25 56.21 2.25 20.21 29.25 38.21 29.25 74.21"/><polygon class="cls-2" points="29.25 74.21 56.25 56.21 56.25 20.21 29.25 38.21 29.25 74.21"/><polygon class="cls-3" points="15.75 47.21 2.25 38.21 2.25 20.21 15.75 29.21 15.75 47.21"/><polygon class="cls-4" points="56.25 20.21 29.25 38.21 2.25 20.21 29.25 2.21 56.25 20.21"/><polygon class="cls-5" points="29.25 20.21 15.75 29.21 2.25 20.21 15.75 11.21 29.25 20.21"/><line class="cls-6" x1="15.75" y1="11.21" x2="15.75" y2="29.21"/><line class="cls-6" x1="2.25" y1="38.21" x2="15.75" y2="29.21"/><polygon class="cls-7" points="2.25 38.21 15.75 47.21 15.75 29.21 2.25 38.21"/><polygon class="cls-8" points="15.75 11.21 15.75 29.21 29.25 20.21 15.75 11.21"/><path class="cls-9" d="M45,37.5v8.42l-4.5-5.46-3.75,2.47V59.38l3.75-2.47V48.5L45,54l3.75-2.47V35Z"/><path class="cls-10" d="M67,53.45l1.68-9.66h2L69,53.6c-.12.63,0,1,.57,1H70.8l-.3,1.65H69.06C67.23,56.21,66.66,55.34,67,53.45Zm2.16-14.73a1.43,1.43,0,0,1,1.44-1.47A1.45,1.45,0,0,1,72,38.72a1.4,1.4,0,0,1-1.44,1.44A1.42,1.42,0,0,1,69.15,38.72Z"/><path class="cls-10" d="M73.53,50.48c0-4.14,2.76-7,6.12-7a4.72,4.72,0,0,1,4.62,3.66l.51-3.39h2L85.11,53.6c-.09.63,0,1,.6,1h1.14l-.3,1.65H85.2c-1.83,0-2.22-.84-2.07-2.16l.09-.39a5.29,5.29,0,0,1-4.56,2.79C75.66,56.45,73.53,54.11,73.53,50.48Zm10.17-.87c0-2.43-1.41-4.29-3.69-4.29-2.64,0-4.38,2.19-4.38,5.19,0,2.46,1.38,4.17,3.54,4.17C81.72,54.68,83.7,52.58,83.7,49.61Z"/><path class="cls-10" d="M91,43.79h2l-.51,2.49A4.91,4.91,0,0,1,97,43.52c2.73,0,4.53,2.1,3.93,5.52l-.81,4.56c-.12.63,0,1,.6,1h1.14l-.3,1.65h-1.38c-1.8,0-2.4-.87-2.07-2.76l.75-4.23c.42-2.37-.45-3.87-2.58-3.87s-3.69,1.35-4.14,3.87l-1.23,7h-2Z"/><path class="cls-10" d="M111.18,45.53l.3-1.74h1.86l1.17-6.48h2l-1.14,6.48h3.36l-.3,1.74h-3.36l-1.23,6.93c-.27,1.56.18,2.22,1.17,2.22a2.31,2.31,0,0,0,1.62-.66l1,1.38a3.89,3.89,0,0,1-2.82,1c-2,0-3.48-1.14-2.94-4.08l1.2-6.84Z"/><path class="cls-10" d="M120.3,54.83a1.63,1.63,0,0,1,1.59-1.62,1.61,1.61,0,0,1,0,3.21A1.62,1.62,0,0,1,120.3,54.83Z"/><path class="cls-10" d="M135.42,43.79h2l-.51,2.49a4.91,4.91,0,0,1,4.41-2.76c2.73,0,4.53,2.1,3.93,5.52l-.81,4.56c-.12.63,0,1,.6,1h1.14l-.3,1.65h-1.38c-1.8,0-2.4-.87-2.07-2.76l.75-4.23c.42-2.37-.45-3.87-2.58-3.87s-3.69,1.35-4.14,3.87l-1.23,7h-2Z"/><path class="cls-10" d="M148.38,50.3a6.65,6.65,0,0,1,6.72-6.78,6.11,6.11,0,0,1,6.18,6.18,6.6,6.6,0,0,1-6.69,6.75A6.13,6.13,0,0,1,148.38,50.3Zm10.8-.63a4.05,4.05,0,0,0-4.11-4.35c-2.7,0-4.59,2.13-4.59,5a4.07,4.07,0,0,0,4.14,4.35C157.38,54.68,159.18,52.55,159.18,49.67Z"/><path class="cls-10" d="M165.66,43.79h2l-.6,2.67c.93-1.86,2.22-2.91,3.87-2.91a3.24,3.24,0,0,1,1.62.39l-.81,1.83a2.34,2.34,0,0,0-1.23-.3c-2,0-3.42,1.53-3.9,4.26l-1.14,6.48h-2Z"/><path class="cls-10" d="M173.46,50.48c0-4.14,2.82-7,6.27-7A4.87,4.87,0,0,1,184.44,47l2.22-12.42h2l-3.36,19c-.12.66,0,1,.57,1H187l-.27,1.65H185.4c-1.83,0-2.22-.87-2.07-2.19l.09-.39a5.44,5.44,0,0,1-4.71,2.82C175.56,56.45,173.46,54,173.46,50.48Zm10.47-.87c0-2.43-1.47-4.29-3.84-4.29-2.76,0-4.53,2.19-4.53,5.19,0,2.46,1.41,4.17,3.69,4.17A4.73,4.73,0,0,0,183.93,49.61Z"/><path class="cls-10" d="M196,54.74a5.09,5.09,0,0,0,3.87-1.56l1.29,1.26a7,7,0,0,1-5.16,2,6,6,0,0,1-6.36-6.18,6.49,6.49,0,0,1,6.45-6.75c3.87,0,5.79,2.76,5.85,6.51l-10.2,1.08A4.09,4.09,0,0,0,196,54.74Zm3.78-6a3.56,3.56,0,0,0-3.72-3.51c-2.43,0-4.08,1.77-4.35,4.35Z"/><path class="cls-10" d="M204.27,50.27A6.59,6.59,0,0,1,211,43.52a5.75,5.75,0,0,1,4.77,2.22l-1.5,1.2A3.86,3.86,0,0,0,211,45.32c-2.79,0-4.62,2.13-4.62,5a4.06,4.06,0,0,0,4,4.38,4.55,4.55,0,0,0,3.3-1.23l1.2,1.35a6.3,6.3,0,0,1-4.5,1.65A6,6,0,0,1,204.27,50.27Z"/><path class="cls-10" d="M219.48,56.21h-2l3.81-21.66h2l-2.46,13.89a18.1,18.1,0,0,1-.45,1.83l6.84-6.48h2.43l-5.55,5.28L227,53.93a1.12,1.12,0,0,0,1.11.63h.78l-.3,1.65h-.87a2.44,2.44,0,0,1-2.46-1.5l-2.67-4.47-2.43,2.07Z"/><path class="cls-11" d="M72.8,69.31l-1,1-.94-.94a3.83,3.83,0,0,1-1.65.38,3.49,3.49,0,1,1,3.65-3.49A3.31,3.31,0,0,1,72,68.5ZM69,67.59l1.06-1,.72.73a2.43,2.43,0,0,0,.18-1,1.8,1.8,0,1,0-1.79,2,2.2,2.2,0,0,0,.46,0Z"/><path class="cls-11" d="M74.8,67.08V62.91h1.82v4.15c0,.77.36,1.21,1.13,1.21s1.13-.44,1.13-1.21V62.91H80.7v4.17c0,1.83-1.25,2.73-2.95,2.73S74.8,68.91,74.8,67.08Z"/><path class="cls-11" d="M83.8,69.71H82l3.31-6.92c0-.07.09-.07.12,0l3.3,6.92H86.87l-.26-.58H84Zm1.51-3.52-.68,1.58H86Z"/><path class="cls-11" d="M96,69.71H94l-.95-1.56h-.68v1.56H90.59v-6.8h2.58A2.6,2.6,0,0,1,96,65.58a2.38,2.38,0,0,1-1.23,2.2Zm-2.93-3a1.12,1.12,0,0,0,0-2.25h-.67V66.7Z"/><path class="cls-11" d="M99.53,64.44h-1.8V62.91h5.42v1.53h-1.8v5.27H99.53Z"/><path class="cls-11" d="M105.18,62.91h4.77v1.53H107V66h2.46v1.45H107v.71h3.09v1.53h-4.91Z"/><path class="cls-11" d="M117.6,69.71h-2l-.95-1.56H114v1.56h-1.82v-6.8h2.58a2.6,2.6,0,0,1,2.86,2.67,2.38,2.38,0,0,1-1.23,2.2Zm-2.93-3a1.12,1.12,0,0,0,0-2.25H114V66.7Z"/><path class="cls-11" d="M119.45,66.12h2.44v1.45h-2.44Z"/><path class="cls-11" d="M123.4,68.55l1.32-1a1.72,1.72,0,0,0,1.42.74c.54,0,.86-.16.86-.54s-.22-.43-.67-.58l-.8-.27a2.06,2.06,0,0,1,.63-4.08,2.75,2.75,0,0,1,2.26.9l-1,1.09a1.41,1.41,0,0,0-1.12-.49c-.44,0-.66.2-.66.47s.15.39.48.5l.9.3c1.36.45,1.82,1.1,1.82,2.06,0,1.25-.78,2.15-2.58,2.15A3.37,3.37,0,0,1,123.4,68.55Z"/><path class="cls-11" d="M132,64.44h-1.8V62.91h5.42v1.53h-1.8v5.27H132Z"/><path class="cls-11" d="M137.91,69.71h-1.78l3.31-6.92c0-.07.09-.07.12,0l3.3,6.92H141l-.26-.58h-2.56Zm1.51-3.52-.68,1.58h1.38Z"/><path class="cls-11" d="M147.26,69.8a3.46,3.46,0,0,1-3.54-3.49,3.43,3.43,0,0,1,3.44-3.48,3.3,3.3,0,0,1,2.94,1.46l-1.37.93a1.71,1.71,0,0,0-3.15,1.09,1.72,1.72,0,0,0,1.67,1.91,1.63,1.63,0,0,0,1.6-.94l1.4.9A3.14,3.14,0,0,1,147.26,69.8Z"/><path class="cls-11" d="M156.08,62.91h2l-2.26,2.95,2.53,3.85h-2.15l-1.62-2.47s-.38.47-.57.7v1.77h-1.82v-6.8H154v2.82Z"/><path class="cls-11" d="M163.82,62.91h2.63a3.4,3.4,0,1,1,0,6.8h-2.63Zm2.43,5.26a1.86,1.86,0,0,0,0-3.72h-.61v3.72Z"/><path class="cls-11" d="M171.91,62.91h4.77v1.53h-2.95V66h2.46v1.45h-2.46v.71h3.09v1.53h-4.91Z"/><path class="cls-11" d="M181.58,69.78a.06.06,0,0,1-.12,0l-3.2-6.87h1.94l1.39,3.17,1.35-3.17h1.85Z"/><path class="cls-11" d="M186.63,62.91h4.77v1.53h-2.95V66h2.46v1.45h-2.46v.71h3.09v1.53h-4.91Z"/><path class="cls-11" d="M193.63,62.91h1.82v5.27h2.89v1.53h-4.71Z"/><path class="cls-11" d="M199.91,66.31a3.65,3.65,0,1,1,3.65,3.49A3.52,3.52,0,0,1,199.91,66.31Zm5.44,0a1.79,1.79,0,1,0-1.79,1.91A1.74,1.74,0,0,0,205.35,66.31Z"/><path class="cls-11" d="M211.09,69.71h-1.82v-6.8h2.58a2.67,2.67,0,1,1,0,5.33h-.76Zm.67-3a1.12,1.12,0,0,0,0-2.25h-.67V66.7Z"/><path class="cls-11" d="M216.76,62.91h4.77v1.53h-2.95V66H221v1.45h-2.46v.71h3.09v1.53h-4.91Z"/><path class="cls-11" d="M229.18,69.71h-2l-.95-1.56h-.68v1.56h-1.82v-6.8h2.58a2.6,2.6,0,0,1,2.86,2.67,2.38,2.38,0,0,1-1.23,2.2Zm-2.93-3a1.12,1.12,0,0,0,0-2.25h-.67V66.7Z"/></svg>