<?xml version="1.0" encoding="utf-8"?>
<!-- Generator: Adobe Illustrator 21.1.0, SVG Export Plug-In . SVG Version: 6.00 Build 0)  -->
<svg version="1.1" id="Layer_2" xmlns="http://www.w3.org/2000/svg" xmlns:xlink="http://www.w3.org/1999/xlink" x="0px" y="0px"
	 viewBox="0 0 223 241.7" style="enable-background:new 0 0 223 241.7;" xml:space="preserve">
<style type="text/css">
	.st0{fill:#003333;stroke:#000000;stroke-width:5;stroke-linecap:round;stroke-linejoin:round;}
	.st1{fill:#006666;stroke:#000000;stroke-width:5;stroke-linecap:round;stroke-linejoin:round;}
	.st2{fill:#006666;stroke:#000000;stroke-width:5;stroke-linecap:round;stroke-miterlimit:10;}
	.st3{fill:#FFFFFF;stroke:#000000;stroke-width:5;stroke-miterlimit:10;}
	.st4{fill:#009999;stroke:#000000;stroke-width:5;stroke-linecap:round;stroke-linejoin:round;}
	.st5{fill:#FFFFFF;}
	.st6{stroke:#000000;stroke-width:5;stroke-linecap:round;stroke-linejoin:round;}
	.st7{fill:#FFFFFF;stroke:#000000;stroke-width:5;stroke-linecap:round;stroke-linejoin:round;}
</style>
<title>monster-2</title>
<polygon class="st0" points="66.5,208.2 128.5,231.2 119.5,198.2 194.5,218.2 142.5,161.2 "/>
<path class="st1" d="M9.1,110.2L24.3,170c6.8,26.9,26.5,48.7,52.6,58.2l32.6,11l-8-31l57,17l-15-38l77,20c0,0-20-15-33-29
	s-30-64-54-114s-52.4-73.4-90-56C10.1,23.6,0.2,75.8,9.1,110.2L9.1,110.2z"/>
<path class="st2" d="M31.4,58.2L4.8,63l0,0c-2.5-15.3,7.9-29.2,19.1-31.1l14.6-3.7"/>
<path class="st3" d="M28.9,45.5H29c17.5-3.1,34.3,8.5,37.4,26s-8.5,34.2-26,37.4C22.9,112,6.2,100.4,3,82.9
	C-0.1,65.5,11.4,48.8,28.9,45.5z"/>
<ellipse transform="matrix(0.9834 -0.1812 0.1812 0.9834 -13.5152 6.4675)" class="st4" cx="28.6" cy="77.2" rx="19.2" ry="19.2"/>
<path d="M28.7,84c-1.3,0-2.7-0.5-3.8-1.3c-3.1-2.2-3.9-6.4-1.8-9.6c1-1.5,2.5-2.5,4.3-2.8c0.4-0.1,0.9-0.1,1.3-0.1
	c3.8,0,6.9,3.1,6.9,6.9S32.5,84,28.7,84L28.7,84z"/>
<path d="M28.7,71.3c1.1,0,2.2,0.4,3.2,1c2.7,1.8,3.4,5.4,1.6,8.1c-0.9,1.3-2.2,2.1-3.7,2.4c-0.3,0.1-0.7,0.1-1,0.1
	c-2.8,0-5.2-1.9-5.7-4.7c-0.6-3.2,1.4-6.2,4.6-6.8C28,71.3,28.4,71.3,28.7,71.3L28.7,71.3 M27.2,69.3c-3.7,0.7-6.4,3.9-6.4,7.7
	c0,4.4,3.5,8,7.9,8c0.5,0,0.9,0,1.4-0.1c3.7-0.7,6.4-3.9,6.4-7.7c0-4.4-3.5-8-7.9-8C28.2,69.2,27.7,69.3,27.2,69.3z"/>
<ellipse transform="matrix(0.9834 -0.1812 0.1812 0.9834 -13.674 7.8112)" class="st5" cx="35.9" cy="78.7" rx="3.2" ry="3.2"/>
<path class="st6" d="M25.6,165.7c0,0,13.9-6,27.2-1.9c12.8,3.9,27.7,16.4,40.7,11.4s15.2-13.4,11.5-30.1s-28.6-22.3-49.9-12.5
	s-36.3,16.2-36.3,16.2L25.6,165.7z"/>
<path class="st1" d="M52.3,179l-23.4,5.3l0,0c-5.6,1.3-11.2-2.2-12.5-7.9l0,0c-1.3-5.6,2.2-11.2,7.9-12.5l12.2-1.7"/>
<path class="st1" d="M30.5,143.1l-14.3,3.2c-3.4,0.8-7.1-2.6-8.2-7.5l0,0c-1.1-4.9,0.7-9.5,4.2-10.3l14.3-3.2"/>
<path class="st7" d="M77.3,132.9c-16.8,4-14.5,13.3-14.5,13.3l33.7,43.5v-51.6C96.5,138.1,94.1,128.9,77.3,132.9z"/>
<path class="st7" d="M52.1,161.9c12.3,1.5,13.1-5.3,13.1-5.3l-11.7-37.8l-13,34.8C40.5,153.6,39.8,160.4,52.1,161.9z"/>
<path class="st7" d="M27.9,148.3c-7.6,1.8-6.6,6-6.6,6L36.5,174v-23.4C36.5,150.6,35.5,146.5,27.9,148.3z"/>
</svg>
