<?xml version="1.0" encoding="utf-8"?>
<!-- Generator: Adobe Illustrator 21.1.0, SVG Export Plug-In . SVG Version: 6.00 Build 0)  -->
<svg version="1.1" id="Layer_1" xmlns="http://www.w3.org/2000/svg" xmlns:xlink="http://www.w3.org/1999/xlink" x="0px" y="0px"
	 viewBox="0 0 219.5 223.2" style="enable-background:new 0 0 219.5 223.2;" xml:space="preserve">
<style type="text/css">
	.st0{fill:#009966;stroke:#000000;stroke-width:5;stroke-linecap:round;stroke-linejoin:round;}
	.st1{fill:#33CC99;}
	.st2{fill:#FFFFFF;stroke:#000000;stroke-width:5;stroke-miterlimit:10;}
	.st3{fill:#29ABE2;stroke:#000000;stroke-width:5;stroke-miterlimit:10;}
	.st4{fill:#FFFFFF;}
	.st5{fill:#33CC99;stroke:#000000;stroke-width:5;stroke-linecap:round;stroke-miterlimit:10;}
	.st6{fill:#33CC99;stroke:#000000;stroke-width:5;stroke-linecap:round;stroke-linejoin:round;}
</style>
<title>monster-1</title>
<path class="st0" d="M159.7,138.2c0,0,12.1-0.9,12.1-11.9s-4.6-15.5-21.5-17s-43.9-14.1-56.5-41.3S81.8,2.5,81.8,2.5
	S62.6,25.9,62.6,47.9s13,33.3,13,33.3s-5.8-2.5-13-11.2s-8.7-25.9-8.7-25.9s-9.6,28.2-1.2,46.1s15.9,23.6,15.9,23.6
	s-7.2,1.4-13.6-5.3S42.5,91.3,42.5,91.3s5.5,38.7,23,55.3s32.8,26.1,50,24.7s26-9.7,26-9.7"/>
<path class="st1" d="M133.1,220.7c-4.4,0-8.9-0.4-13.2-1.2c-39.4-7.3-65.4-45.1-58.1-84.5c6.3-34.3,36.2-59.2,71.1-59.3
	c4.5,0,8.9,0.4,13.3,1.2c39.4,7.3,65.4,45.1,58.1,84.5C197.9,195.6,168,220.6,133.1,220.7L133.1,220.7z"/>
<path d="M132.9,73.2v5l0,0c4.3,0,8.6,0.4,12.8,1.2c38,7,63.2,43.5,56.2,81.5c-6.1,33.2-35,57.3-68.8,57.4c-4.3,0-8.6-0.4-12.8-1.2
	c-38-7-63.2-43.5-56.2-81.5c6.1-33.2,35-57.3,68.8-57.4L132.9,73.2 M132.9,73.2c-41.5,0-75.1,33.6-75.1,75.1
	c0,41.5,33.6,75.1,75.1,75.1c41.5,0,75.1-33.6,75.1-75.1c0-36.2-25.8-67.2-61.4-73.8C142.1,73.6,137.5,73.2,132.9,73.2L132.9,73.2z"
	/>
<ellipse transform="matrix(0.1812 -0.9834 0.9834 0.1812 -3.3939 309.0091)" class="st2" cx="183.9" cy="156.5" rx="27.5" ry="27.5"/>
<ellipse transform="matrix(0.1812 -0.9834 0.9834 0.1812 1.763 318.2115)" class="st3" cx="192" cy="158" rx="19.2" ry="19.2"/>
<path d="M191.9,164.9c-0.4,0-0.8,0-1.2-0.1c-3.7-0.7-6.2-4.3-5.5-8c0.6-3.2,3.4-5.6,6.7-5.6c2.2,0,4.3,1.1,5.6,3
	c2.1,3.2,1.3,7.5-1.9,9.6C194.5,164.4,193.3,164.8,191.9,164.9z"/>
<path d="M192,152.2L192,152.2c0.3,0,0.7,0,1,0.1c1.5,0.3,2.8,1.1,3.7,2.4c1.8,2.7,1.1,6.3-1.5,8.1c-0.9,0.6-2.1,1-3.2,1
	c-0.3,0-0.7,0-1-0.1c-3.2-0.6-5.2-3.6-4.6-6.8C186.8,154.2,189.2,152.2,192,152.2 M192,150.1c-4.4,0-7.9,3.6-7.9,8
	c0,3.8,2.7,7,6.4,7.7c0.5,0.1,0.9,0.1,1.4,0.1c4.4,0,7.9-3.6,7.9-8c0-3.8-2.7-7-6.4-7.7C192.9,150.2,192.5,150.1,192,150.1z"/>
<ellipse transform="matrix(0.1812 -0.9834 0.9834 0.1812 -5.6818 312.4)" class="st4" cx="184.8" cy="159.6" rx="3.2" ry="3.2"/>
<path d="M157.7,197c6.5-1.3,9.8,2.1,11.2,3c-1-7.1-7.4-12.2-16.7-14c-11-2-22.3-0.6-23.9,8.1s7.6,12.6,15.3,11.5
	S151.2,198.3,157.7,197z"/>
<path class="st5" d="M183.8,114.9l20.4,10.9c9.2,4.1,16,16.7,11.3,27.2l0,0l-59.2-26.9"/>
<path class="st6" d="M128.6,138c0,0,11.5-3.9,8.8-14.6s-8.3-13.9-25.1-11.1s-46-2.7-65-26S19.3,26,19.3,26S6.5,53.4,12,74.8
	s20.9,29,20.9,29s-6.2-1-15.4-7.6S2.6,73.2,2.6,73.2s-2.3,29.7,10.3,44.9S34.2,137,34.2,137s-6.6,3.1-14.5-1.7S3.3,121.7,3.3,121.7
	s14.9,36.1,36.1,47.9s38.2,17.1,54.5,11.5s22.8-15.8,22.8-15.8"/>
</svg>
